<?xml version="1.0" encoding="UTF-8" standalone="no"?>
<svg xmlns="http://www.w3.org/2000/svg" id="svg_flamegraphs" version="1.1" width="500pt" height="500pt" viewBox="0 0 500 500" shape-rendering="crispEdges">
  <g id="g_flame" transform="matrix(20,0,0,20,40,450)">
    <path id="path01a" stroke="#aaaaaa" d="m 0,0 h 21"/>
    <path id="path01b" stroke="#cccccc" d="m 1,0 h 2 m 12,0 h 3 m 1,0 h 2"/>
    <path id="path02a" stroke="#cb3c33" d="m 1,-1 h 20"/>
    <path id="path02b" stroke="#9558b2" d="m 2,-1 h 1 m 4,0 h 8 m 1,0 h 2 m 1,0 h 2"/>
    <path id="path03a" stroke="#aaaaaa" d="m 1,-2 h 20"/>
    <path id="path03b" stroke="#cccccc" d="m 2,-2 h 1 m 4,0 h 1 m 7,0 h 1 m 1,0 h 1 m 1,0 h 1"/>
    <path id="path04a" stroke="#cb3c33" d="m 1,-3 h 17"/>
    <path id="path04b" stroke="#9558b2" d="m 2,-3 h 1 m 4,0 h 1 m 1,0 h 6 m 1,0 h 1 m 2,0 h 1"/>
    <path id="path05a" stroke="#aaaaaa" d="m 1,-4 h 1 m 1,0 h 15 m 1,0 h 1"/>
    <path id="path05b" stroke="#cccccc" d="m 3,-4 h 1 m 3,0 h 1 m 1,0 h 1 m 5,0 h 1 m 1,0 h 1"/>
    <path id="path06a" stroke="#cb3c33" d="m 1,-5 h 1 m 1,0 h 15"/>
    <path id="path06b" stroke="#9558b2" d="m 3,-5 h 1 m 3,0 h 1 m 1,0 h 1 m 1,0 h 4 m 1,0 h 1 m 2,0 h 1"/>
    <path id="path07a" stroke="#aaaaaa" d="m 1,-6 h 1 m 1,0 h 15"/>
    <path id="path07b" stroke="#cccccc" d="m 3,-6 h 1 m 3,0 h 1 m 1,0 h 1 m 1,0 h 4 m 1,0 h 1 m 2,0 h 1"/>
    <path id="path08a" stroke="#cb3c33" d="m 1,-7 h 1 m 1,0 h 14 m 2,0 h 1"/>
    <path id="path08b" stroke="#9558b2" d="m 3,-7 h 1 m 3,0 h 1 m 1,0 h 1 m 1,0 h 4 m 1,0 h 1"/>
    <path id="path09a" stroke="#aaaaaa" d="m 1,-8 h 1 m 1,0 h 12 m 1,0 h 1"/>
    <path id="path09b" stroke="#cccccc" d="m 3,-8 h 1 m 3,0 h 1 m 1,0 h 1 m 1,0 h 4"/>
    <path id="path10a" stroke="#cb3c33" d="m 4,-9 h 11"/>
    <path id="path10b" stroke="#389826" d="m 7,-9 h 1 m 1,0 h 1 m 1,0 h 4"/>
    <path id="path11a" stroke="#aaaaaa" d="m 4,-10 h 11"/>
    <path id="path11b" stroke="#cccccc" d="m 6,-10 h 1 m 1,0 h 1 m 1,0 h 1"/>
    <path id="path12a" stroke="#cb3c33" d="m 4,-11 h 3 m 1,0 h 7"/>
    <path id="path12b" stroke="#389826" d="m 6,-11 h 1 m 2,0 h 1 m 1,0 h 4"/>
    <path id="path13a" stroke="#aaaaaa" d="m 4,-12 h 3 m 1,0 h 7"/>
    <path id="path13b" stroke="#cccccc" d="m 5,-12 h 1 m 2,0 h 1 m 1,0 h 1"/>
    <path id="path14a" stroke="#cb3c33" d="m 6,-13 h 1 m 2,0 h 6"/>
    <path id="path14b" stroke="#389826" d="m 9,-13 h 1 m 1,0 h 4"/>
    <path id="path15a" stroke="#aaaaaa" d="m 10,-14 h 5"/>
    <path id="path15b" stroke="#cccccc" d="m 11,-14 h 1"/>
    <path id="path16a" stroke="#cb3c33" d="m 11,-15 h 4"/>
    <path id="path16b" stroke="#389826" d="m 12,-15 h 3"/>
    <path id="path17a" stroke="#aaaaaa" d="m 11,-16 h 4"/>
    <path id="path17b" stroke="#cccccc" d="m 12,-16 h 1"/>
    <path id="path18a" stroke="#cb3c33" d="m 11,-17 h 2"/>
    <path id="path18b" stroke="#389826" d="m 12,-17 h 1"/>
    <path id="path19a" stroke="#aaaaaa" d="m 11,-18 h 2"/>
    <path id="path19b" stroke="#cccccc" d="m 12,-18 h 1"/>
    <path id="path20a" stroke="#cb3c33" d="m 12,-19 h 1"/>
    <path id="path21a" stroke="#aaaaaa" d="m 12,-20 h 1"/>
  </g>
</svg>
